<svg width="20" height="20" viewBox="0 0 20 20" fill="none" xmlns="http://www.w3.org/2000/svg">
<g clip-path="url(#clip0_712_338)">
<path d="M9.24519 0H10.4774C10.8071 0.0440933 11.1406 0.0772028 11.4668 0.132319C13.4821 0.47588 15.3431 1.44328 16.7946 2.90179C18.2461 4.36029 19.217 6.23842 19.5739 8.27853C19.6391 8.64598 19.6753 9.01342 19.7261 9.38087V10.6301C19.6971 10.869 19.6717 11.1079 19.6391 11.3431C19.3725 13.4735 18.4151 15.4536 16.9174 16.9722C14.3805 19.5443 11.3327 20.4814 7.82815 19.7796C5.50473 19.3257 3.43475 18.0022 2.02958 16.072C1.00239 14.7081 0.338727 13.0992 0.102454 11.3999C-0.133818 9.70068 0.0652258 7.96837 0.680489 6.36972C1.29575 4.77108 2.30653 3.35995 3.61548 2.27204C4.92443 1.18413 6.48752 0.456033 8.15433 0.157976C8.52036 0.106534 8.8864 0.0514422 9.24519 0ZM10.6948 8.3006V7.56571C10.6948 6.56259 10.6948 6.54788 11.6915 6.54788H12.467V4.57834C12.4465 4.57604 12.4259 4.57604 12.4054 4.57834C11.6806 4.57834 10.9775 4.5453 10.2672 4.60777C9.86143 4.62545 9.47138 4.77186 9.15211 5.02635C8.83284 5.28083 8.60045 5.63056 8.48772 6.02614C8.39003 6.37449 8.33407 6.73346 8.32102 7.09537C8.29566 7.49589 8.32102 7.90011 8.32102 8.32635H7.20844V10.384H8.32828V16.1602H10.7093V10.3656H12.3112L12.5141 8.32267L10.6948 8.3006Z" fill="white"/>
<path d="M10.7092 8.30053H12.5213L12.3184 10.3435H10.7165V16.1381H8.33547V10.3618H7.21558V8.30421H8.32821C8.32821 7.87797 8.31009 7.47375 8.32821 7.07323C8.34126 6.71132 8.39721 6.35235 8.4949 6.004C8.60764 5.60842 8.84002 5.25869 9.1593 5.00421C9.47857 4.74972 9.86861 4.60331 10.2744 4.58563C10.9992 4.52316 11.6986 4.55997 12.4126 4.55629C12.4331 4.55399 12.4537 4.55399 12.4742 4.55629V6.52574H11.6986C10.7201 6.52574 10.702 6.52575 10.702 7.54357L10.7092 8.30053Z" fill="#2F383B"/>
</g>
<defs>
<clipPath id="clip0_712_338">
<rect width="19.726" height="20" fill="white"/>
</clipPath>
</defs>
</svg>
