<svg width="21" height="20" viewBox="0 0 21 20" fill="none" xmlns="http://www.w3.org/2000/svg">
<g clip-path="url(#clip0_712_345)">
<path d="M10.9315 19.9998H9.69863C9.65717 19.9853 9.61454 19.9745 9.57124 19.9674C8.73774 19.9154 7.91578 19.7431 7.13014 19.4556C3.54795 18.1103 1.37329 15.5389 0.606166 11.7412C0.53168 11.376 0.503427 10.9973 0.452057 10.6253V9.37321C0.463358 9.31686 0.4762 9.26052 0.486474 9.20365C0.598974 8.56509 0.660105 7.91192 0.830653 7.28953C2.55411 1.00823 9.67295 -1.93053 15.2584 1.35724C17.8911 2.9067 19.4707 5.25228 20.0296 8.29589C20.0949 8.65273 20.1293 9.0148 20.1781 9.37477V10.5867C20.1673 10.6493 20.1539 10.7114 20.1452 10.7745C20.0938 11.1668 20.0579 11.5633 19.9839 11.9515C19.2134 15.9774 16.0033 19.1577 12.0134 19.8459C11.6543 19.9085 11.2911 19.9492 10.9315 19.9998ZM8.8125 8.24633V15.2559H10.9366V15.0175C10.9366 13.9219 10.9336 12.8305 10.9366 11.7376C10.9366 11.3463 10.9685 10.955 11.1457 10.5971C11.3769 10.1276 11.8315 9.91891 12.4526 9.99925C12.8861 10.0514 13.181 10.3451 13.2745 10.8538C13.3228 11.1158 13.3479 11.3818 13.3495 11.6484C13.3577 12.7804 13.3536 13.9131 13.3541 15.0452V15.2538H15.4962C15.4998 15.1897 15.506 15.1391 15.506 15.0879C15.506 13.8359 15.5194 12.589 15.4983 11.3395C15.4918 10.8391 15.4416 10.3403 15.3483 9.849C15.1875 9.02628 14.736 8.41432 13.9017 8.19416C13.5543 8.10278 13.1961 8.06064 12.8373 8.06895C12.0339 8.08878 11.3743 8.41849 10.9274 9.12331C10.9027 9.14934 10.8755 9.17276 10.8462 9.19322V8.24738L8.8125 8.24633ZM7.43476 15.2549V8.25259H5.30908V15.2549H7.43476ZM6.36267 7.27283C6.61003 7.27283 6.85181 7.19825 7.05739 7.05856C7.26297 6.91886 7.42309 6.72034 7.51747 6.48814C7.61184 6.25593 7.63622 6.0005 7.58751 5.75421C7.53881 5.50792 7.4192 5.28186 7.24387 5.10467C7.06853 4.92748 6.84535 4.80714 6.6026 4.75889C6.35985 4.71064 6.10847 4.73666 5.88029 4.83365C5.65212 4.93064 5.45744 5.09424 5.3209 5.30371C5.18437 5.51319 5.11214 5.75911 5.11336 6.01031C5.11539 6.3457 5.24783 6.66668 5.48183 6.90335C5.71583 7.14002 6.03243 7.27319 6.36267 7.27388V7.27283Z" fill="white"/>
</g>
<defs>
<clipPath id="clip0_712_345">
<rect width="19.726" height="20" fill="white" transform="translate(0.452057)"/>
</clipPath>
</defs>
</svg>
