<svg width="21" height="20" viewBox="0 0 21 20" fill="none" xmlns="http://www.w3.org/2000/svg">
<g clip-path="url(#clip0_712_341)">
<path d="M11.1678 19.9996H10.0891C9.80923 19.9678 9.52843 19.9428 9.24957 19.9017C7.86002 19.7129 6.52784 19.219 5.34595 18.4545C5.29293 18.4151 5.23106 18.3898 5.16595 18.3807C5.10084 18.3717 5.03453 18.3792 4.97301 18.4027C3.84645 18.7749 2.717 19.1363 1.58852 19.5041C1.52676 19.5242 1.46404 19.5427 1.37624 19.5696C1.77041 18.3807 2.14818 17.2293 2.53415 16.0809C2.58626 15.9264 2.5824 15.811 2.48253 15.6706C1.66354 14.4926 1.11568 13.1433 0.879298 11.7221C0.808858 11.3079 0.775085 10.8868 0.724426 10.4691V9.41459C0.736488 9.34514 0.749997 9.27618 0.760129 9.20722C0.823332 8.77046 0.859999 8.32685 0.953115 7.89743C1.47321 5.48131 2.70542 3.50733 4.65361 2.02831C7.04519 0.213282 9.73444 -0.386344 12.6625 0.233337C15.0218 0.732701 16.9405 1.98478 18.4077 3.91816C19.9911 6.0061 20.6502 8.3831 20.4027 10.9997C20.2025 13.1121 19.3958 14.9795 18.0097 16.5754C16.4807 18.3361 14.5731 19.4312 12.291 19.8421C11.9186 19.9115 11.5422 19.9487 11.1678 19.9996ZM13.7688 15.6354C14.0887 15.5733 14.369 15.5532 14.6257 15.4642C16.0205 14.9795 16.4938 14.2972 16.5343 12.9913C16.5406 12.7835 16.4629 12.646 16.2781 12.557C15.5491 12.2054 14.8249 11.8434 14.093 11.4972C13.7046 11.3137 13.4832 11.3847 13.2289 11.7319C13.0359 11.9931 12.8502 12.2567 12.6524 12.5145C12.3581 12.8965 12.141 12.9502 11.699 12.7678C10.0886 12.1026 8.8829 10.9655 7.97683 9.48111C7.75586 9.11967 7.76696 9.01256 8.04968 8.68878C8.22819 8.48434 8.41442 8.28577 8.58039 8.07204C8.73719 7.87102 8.8829 7.65141 8.77 7.37654C8.43227 6.549 8.08683 5.72292 7.73318 4.90173C7.6888 4.79902 7.58458 4.67675 7.48664 4.65229C6.96896 4.52171 6.42812 4.49285 5.99583 4.84793C5.0309 5.64173 4.72984 6.70991 4.91511 7.92384C5.04537 8.77388 5.44003 9.51877 5.91671 10.2226C6.68238 11.3543 7.54743 12.3951 8.57894 13.2907C9.72624 14.2874 11.0583 14.9203 12.4932 15.3478C12.9216 15.4749 13.3655 15.5459 13.7688 15.6354Z" fill="white"/>
<path d="M13.7689 15.6355C13.3656 15.546 12.9217 15.4751 12.4943 15.3475C11.0594 14.92 9.72734 14.2871 8.58004 13.2903C7.54853 12.3948 6.68347 11.3525 5.92021 10.2223C5.44354 9.51845 5.04888 8.77356 4.91862 7.92352C4.73335 6.70959 5.03634 5.64141 5.99934 4.84761C6.43356 4.49106 6.97247 4.51991 7.49015 4.65197C7.58664 4.67642 7.6923 4.7987 7.73669 4.90141C8.09034 5.72259 8.43337 6.54867 8.77351 7.37622C8.8864 7.65109 8.7407 7.87069 8.5839 8.07171C8.41697 8.28545 8.23073 8.48402 8.05319 8.68846C7.77046 9.01224 7.75937 9.11935 7.98034 9.48079C8.8864 10.9652 10.0921 12.1023 11.7025 12.7675C12.1445 12.9499 12.3616 12.8961 12.6559 12.5141C12.8537 12.2583 13.0419 11.9947 13.2324 11.7316C13.4867 11.3843 13.7081 11.3134 14.0965 11.4968C14.8284 11.8431 15.5526 12.205 16.2816 12.5567C16.4664 12.6457 16.5441 12.7831 16.5378 12.991C16.4973 14.2969 16.024 14.9792 14.6292 15.4639C14.3691 15.5534 14.0888 15.5734 13.7689 15.6355Z" fill="#2F383B"/>
</g>
<defs>
<clipPath id="clip0_712_341">
<rect width="19.726" height="20" fill="white" transform="translate(0.726028)"/>
</clipPath>
</defs>
</svg>
